<svg xmlns="http://www.w3.org/2000/svg" viewBox="0 0 32 32" shape-rendering="crispEdges">
  <rect width="32" height="32" fill="#0D1B2A"/>
  <!-- alas izq -->
  <rect x="6" y="7" width="2" height="2" fill="#C9A84C"/>
  <rect x="4" y="8" width="2" height="2" fill="#C9A84C"/>
  <rect x="8" y="8" width="2" height="2" fill="#C9A84C"/>
  <rect x="6" y="9" width="2" height="2" fill="#C9A84C"/>
  <!-- alas der -->
  <rect x="24" y="7" width="2" height="2" fill="#C9A84C"/>
  <rect x="26" y="8" width="2" height="2" fill="#C9A84C"/>
  <rect x="22" y="8" width="2" height="2" fill="#C9A84C"/>
  <rect x="24" y="9" width="2" height="2" fill="#C9A84C"/>
  <!-- esfera top -->
  <rect x="14" y="4" width="4" height="4" fill="#C9A84C"/>
  <rect x="15" y="3" width="2" height="2" fill="#E5C872"/>
  <!-- vara -->
  <rect x="15" y="8" width="2" height="18" fill="#C9A84C"/>
  <!-- serpiente izq -->
  <rect x="13" y="11" width="2" height="2" fill="#2E9CCA"/>
  <rect x="11" y="13" width="2" height="2" fill="#2E9CCA"/>
  <rect x="13" y="15" width="2" height="2" fill="#2E9CCA"/>
  <rect x="11" y="17" width="2" height="2" fill="#2E9CCA"/>
  <rect x="13" y="19" width="2" height="2" fill="#2E9CCA"/>
  <!-- serpiente der -->
  <rect x="17" y="11" width="2" height="2" fill="#2E9CCA"/>
  <rect x="19" y="13" width="2" height="2" fill="#2E9CCA"/>
  <rect x="17" y="15" width="2" height="2" fill="#2E9CCA"/>
  <rect x="19" y="17" width="2" height="2" fill="#2E9CCA"/>
  <rect x="17" y="19" width="2" height="2" fill="#2E9CCA"/>
  <!-- base -->
  <rect x="13" y="26" width="6" height="2" fill="#C9A84C"/>
</svg>
